<svg xmlns="http://www.w3.org/2000/svg" viewBox="0 0 749 858" fill="none">
  <g transform="translate(0, -70) translate(374.5, 429) scale(0.88) translate(-374.5, -429)">
    <path d="M466.427 168.861C495.285 129.282 506.693 84.438 512.634 0C533.148 82.1234 546.489 124.802 581.877 158.761C617.169 192.728 665.103 193.798 748.854 199.923C667.439 220.499 622.305 251.433 593.351 291.021C564.503 330.712 556.889 353.483 550.953 437.986C530.433 355.798 513.299 335.191 478.007 301.224C442.706 267.146 398.563 244.022 314.876 237.891C396.227 217.322 437.57 208.441 466.427 168.861Z" fill="#F97316"/>
    <path fill-rule="evenodd" clip-rule="evenodd" d="M49.184 307.674C-52.066 483.049 8.02057 707.299 183.394 808.549C358.767 909.802 583.018 849.716 684.271 674.339C785.523 498.966 725.435 274.717 550.061 173.465C374.687 72.2124 150.437 132.3 49.184 307.674ZM504.059 285.803C511.967 266.102 523.21 235.316 523.21 235.316C523.21 235.316 638.091 343.098 656.937 415.892C645.85 416.734 633.294 418.626 619.77 422.25C571.292 435.239 513.798 469.606 467.762 549.342C461.669 559.896 456.364 570.226 451.777 580.319C426.091 573.532 398.887 563.656 370.564 549.722C378.841 536.229 387.201 522.209 395.594 507.676C446.506 419.492 481.622 341.701 504.059 285.803ZM312.854 516.299C321.117 502.859 329.471 488.869 337.857 474.342C386.944 389.322 420.727 314.441 442.19 260.97C450.977 239.079 457.691 220.795 462.539 206.897C404.627 187.299 343.367 186.415 286.674 202.122C291.487 212.144 296.127 223.964 299.751 237.487C312.741 285.966 311.724 352.94 265.687 432.676C259.594 443.232 253.301 452.989 246.854 462.009C265.311 480.592 287.107 498.956 312.854 516.299ZM202.254 511.689C172.341 537.799 141.524 552.309 113.681 559.769C100.157 563.392 87.6039 565.286 76.5206 566.129C91.2639 623.076 122.661 675.686 168.587 716.039C178.201 704.889 190.674 689.936 205.237 671.382C225.721 645.289 250.307 612.109 276.851 572.429C248.041 553.139 223.371 532.616 202.254 511.689ZM202.404 408.588C204.267 405.605 206.117 402.525 207.954 399.344C245.251 334.744 243.717 285.948 235.354 254.742C232.391 243.676 228.444 234.389 224.594 227.026C196.481 242.128 170.571 261.829 148.114 285.795C148.347 286.88 148.594 288.001 148.854 289.157C152.647 305.853 159.684 329.633 172.574 356.895C180.234 373.096 189.984 390.58 202.404 408.588ZM99.4573 355.233C103.091 364.791 107.341 374.89 112.304 385.391C123.604 409.29 138.584 435.196 158.381 461.492C136.051 480.972 114.297 490.586 96.424 495.376C85.3606 498.339 75.3473 499.566 67.0473 499.916C65.5507 451.112 75.9539 401.399 99.4573 355.233ZM257.677 712.546C279.657 684.546 306.044 648.889 334.457 606.202C367.944 623.249 400.317 635.399 431.054 643.786C423.397 682.746 426.241 716.689 433.7 744.532C437.323 758.056 441.963 769.872 446.775 779.896C374.314 799.969 294.387 792.939 223.534 754.369C233.024 743.229 244.574 729.242 257.677 712.546ZM496.461 656.682C490.757 685.759 493.306 709.406 498.095 727.279C501.06 738.342 505.006 747.629 508.855 754.992C551.869 731.886 589.721 698.016 617.951 654.576C607.853 656.209 596.979 657.579 585.398 658.532C559.052 660.696 529.131 660.676 496.461 656.682ZM520.267 592.102C542.07 593.856 562.083 593.556 579.941 592.089C609.996 589.619 634.108 583.826 650.464 578.762C651.599 578.409 652.697 578.062 653.756 577.719C663.28 546.289 667.387 514.002 666.41 482.106C658.107 482.452 648.092 483.679 637.025 486.646C605.819 495.006 562.794 518.076 525.497 582.676C523.661 585.856 521.919 588.999 520.267 592.102Z" fill="#F97316"/>
  </g>
</svg>
