<svg xmlns="http://www.w3.org/2000/svg" viewBox="0 0 566.93 566.93">
  <style>
    .face { fill: #fafafa; stroke: #fafafa; }
    @media (prefers-color-scheme: dark) { .face { fill: #171717; stroke: #171717; } }
  </style>
  <path fill="#2d8b8f" d="m297.42,95.53l36.55,40.47c10.03,0,18.74,3.66,25.8,11.29,7.16,7.73,10.88-26.25,10.75-22.99v257.88c0,50.9-14.7,85.3-44.08,103.2-29.4,17.93-61.28,26.88-95.68,26.88-18.65,0-36.92-3.06-54.83-9.14-17.92-6.08-32.25-15.94-43-29.56-20.8-26.5-31.18-62.7-31.18-108.58s10.38-81.33,31.18-108.57c21.5-27.95,49.08-41.93,82.78-41.93,17.9,0,33.68,3.6,47.3,10.75,14.33,8.6,25.8,19.72,34.4,33.33V95.53Zm-122.55,266.22c0,28.68,5.38,50.53,16.13,65.58,10.75,15.05,26.16,22.58,46.23,22.58s34.4-7.53,45.15-22.58c10.03-15.05,15.05-36.9,15.05-65.58,0-25.8-5.38-46.22-16.13-61.27-11.47-14.33-26.88-21.5-46.23-21.5s-33.33,7.53-44.08,22.58c-10.75,14.35-16.13,34.4-16.13,60.2Z"/>
  <path fill="#2d8b8f" d="m370.52,166.64h-73.1V54.67h45.33c15.34,0,27.78,12.44,27.78,27.78v84.19Z"/>
  <path fill="#2d8b8f" d="m364.56,65.42c45.07,48.76,67.23,54.3,78.16,47.19,5.23-3.4,9.65-10.52,14.21-8.63,7.95,3.29,11.96,25.08,3.55,42.08-9.04,18.27-59.74,43.78-108.1-17.07"/>
  <ellipse fill="#2d8b8f" cx="238.71" cy="369.6" rx="78.12" ry="93.97"/>
  <path class="face" fill="none" stroke-miterlimit="10" stroke-width="9" d="m258.96,399.86c0,13.76-19.45,24.91-43.43,24.91s-43.43-11.15-43.43-24.91"/>
  <rect class="face" x="159.21" y="332.51" width="14.8" height="36.05"/>
  <rect class="face" x="255.18" y="332.22" width="14.8" height="36.05"/>
  <g transform="translate(24 -30) scale(10.5)">
    <path d="M9 8L5 11.6923L9 16M15 8L19 11.6923L15 16" fill="none" stroke="#2d8b8f" stroke-width="2" stroke-linecap="round" stroke-linejoin="round"/>
  </g>
</svg>
